<?xml version="1.0" standalone="no"?>
<!DOCTYPE svg PUBLIC "-//W3C//DTD SVG 20010904//EN"
 "http://www.w3.org/TR/2001/REC-SVG-20010904/DTD/svg10.dtd">
<svg version="1.0" xmlns="http://www.w3.org/2000/svg"
 width="153.000000pt" height="153.000000pt" viewBox="0 0 153.000000 153.000000"
 preserveAspectRatio="xMidYMid meet">
<metadata>
Created by potrace 1.14, written by Peter Selinger 2001-2017
</metadata>
<g transform="translate(0.000000,153.000000) scale(0.100000,-0.100000)"
fill="#000000" stroke="none">
<path d="M390 1491 c0 -28 5 -30 298 -150 163 -68 307 -129 319 -137 31 -20
20 -39 -35 -59 -26 -10 -65 -26 -87 -36 -22 -10 -107 -45 -190 -79 -82 -33
-185 -75 -227 -93 l-78 -32 0 -122 c0 -68 4 -123 9 -123 4 0 88 33 186 73
l178 74 81 -34 c45 -18 90 -38 101 -43 11 -5 33 -14 48 -20 21 -7 28 -16 25
-31 -2 -16 -21 -28 -78 -51 -41 -16 -88 -35 -105 -42 -16 -8 -97 -42 -180 -75
-82 -34 -175 -72 -205 -85 l-55 -23 -3 -197 c-2 -134 1 -196 8 -196 6 0 30 9
52 20 23 11 46 20 50 20 5 0 28 9 51 19 23 10 155 65 292 122 138 56 260 111
273 122 21 20 22 27 22 199 0 159 -2 180 -18 196 -15 15 -172 86 -266 121 -14
6 1 15 60 40 153 64 203 90 213 110 6 11 11 63 11 116 0 86 -2 98 -22 118 -13
12 -93 51 -178 85 -85 35 -164 68 -175 73 -60 27 -360 149 -367 149 -4 0 -8
-13 -8 -29z"/>
</g>
</svg>
