<svg width="21" height="21" viewBox="0 0 21 21" fill="none" xmlns="http://www.w3.org/2000/svg">
<g id="Group">
<path id="Vector" d="M14.4486 0.485352H6.36191C3.01772 0.485352 0.296875 3.2062 0.296875 6.55039V11.2676C0.296875 14.499 2.83678 17.148 6.02497 17.3236V20.1351C6.02497 20.4508 6.28239 20.7075 6.59879 20.7075C6.75008 20.7075 6.89328 20.6476 7.00144 20.5394L7.63355 19.9073C9.29335 18.2472 11.5007 17.3327 13.8485 17.3327H14.4486C17.7928 17.3327 20.5137 14.6118 20.5137 11.2676V6.55039C20.5137 3.2062 17.7928 0.485352 14.4486 0.485352ZM6.02497 10.2568C5.28166 10.2568 4.67718 9.65232 4.67718 8.90902C4.67718 8.16571 5.28166 7.56123 6.02497 7.56123C6.76827 7.56123 7.37275 8.16571 7.37275 8.90902C7.37275 9.65232 6.76793 10.2568 6.02497 10.2568ZM10.4053 10.2568C9.66197 10.2568 9.05749 9.65232 9.05749 8.90902C9.05749 8.16571 9.66197 7.56123 10.4053 7.56123C11.1486 7.56123 11.7531 8.16571 11.7531 8.90902C11.7531 9.65232 11.1482 10.2568 10.4053 10.2568ZM14.7856 10.2568C14.0423 10.2568 13.4378 9.65232 13.4378 8.90902C13.4378 8.16571 14.0423 7.56123 14.7856 7.56123C15.5289 7.56123 16.1334 8.16571 16.1334 8.90902C16.1334 9.65232 15.5285 10.2568 14.7856 10.2568Z" fill="#A4B6E1"/>
</g>
</svg>
